<svg width="82" height="1024" viewBox="0 0 82 1024" fill="none" xmlns="http://www.w3.org/2000/svg">
<path d="M48.381 -23.0001C45.3535 -16.0812 47.2126 16.7425 47.2126 16.7425V20.9727C47.2126 20.9727 48.8404 25.5143 47.4202 24.9908L45.1005 24.4673L45.4382 29.7022C45.4382 29.7022 43.9666 33.1732 44.5342 35.984C44.7234 37.7137 49.294 34.472 48.3479 39.0125C46.8342 47.8773 48.3479 56.5259 50.9969 54.58C51.943 53.9314 53.646 55.4448 54.7813 57.8232C55.9166 60.2015 58.3764 62.1475 60.2686 62.1475C64.4313 62.1475 71.2431 70.3637 71.6216 76.2014C71.8108 78.5798 72 89.1742 72 99.7687C72 116.633 71.6216 119.228 68.2157 122.039C62.7284 126.363 59.5117 134.363 56.8627 150.795C55.5381 158.579 52.3214 169.822 49.8616 175.66C47.4018 181.714 44.1851 195.551 42.6714 207.011C41.1577 218.254 39.4547 229.929 38.6979 232.956C37.941 235.983 36.9949 258.686 36.6165 283.767C36.0488 319.658 36.6165 331.55 38.8871 340.415C40.4008 346.685 42.293 351.874 43.0498 351.874C43.8067 351.874 46.2665 353.604 48.7263 355.766C54.592 360.955 56.4842 388.198 52.1322 406.792C50.4293 413.711 49.6724 420.414 50.2401 421.495C50.8077 422.576 50.0509 425.603 48.5371 428.198C45.3204 433.819 36.238 467.116 35.8596 475.116C34.7243 490.684 36.0488 500.629 39.6439 505.386C41.7253 508.197 43.4283 512.521 43.4283 515.332C43.4283 518.143 44.942 522.034 46.8342 524.197C56.4842 535.223 59.7009 557.061 53.0783 567.872C49.8616 573.277 42.8606 601.601 39.4547 623.006C38.6979 628.628 36.6165 637.925 34.9135 643.547C32.8321 650.682 32.2645 658.898 32.8321 670.357C33.3998 681.384 32.8321 690.681 31.1292 697.384C29.6154 703.006 27.5341 715.114 26.3988 724.194C25.2635 733.275 22.9929 746.465 21.2899 753.383C19.587 760.302 18.2624 768.735 18.4517 772.41C18.6409 775.87 17.5056 786.464 15.9918 795.978C12.5859 815.869 12.3967 828.842 15.235 830.788C16.3703 831.653 16.7487 837.491 15.8026 846.788C15.235 854.788 14.4781 878.355 14.2889 899.112C14.0997 936.949 14.0997 937.165 19.3977 948.192C28.6693 967.651 27.534 1010.25 16.9379 1029.92C15.8026 1032.08 12.8382 1036.84 10 1047" stroke="white" stroke-width="20"/>
</svg>
