<svg width="1323" height="795" viewBox="0 0 1323 795" fill="none" xmlns="http://www.w3.org/2000/svg">
<path d="M761.501 18.2355L729.098 1V18.2355L761.501 35.9498V18.2355Z" fill="#FBCA01" stroke="#FBCA01"/>
<path d="M760.402 367.015L728 349.779V367.015L760.402 384.729V367.015Z" fill="#FBCA01" stroke="#FBCA01"/>
<path d="M761.501 157.795L729.098 140.56V157.795L761.501 175.509V157.795Z" fill="#FBCA01" stroke="#FBCA01"/>
<path d="M760.402 506.574L728 489.339V506.574L760.402 524.289V506.574Z" fill="#FBCA01" stroke="#FBCA01"/>
<path d="M762.05 87.8956L729.647 70.6601V87.8956L762.05 105.61V87.8956Z" fill="#FBCA01" stroke="#FBCA01"/>
<path d="M760.951 436.675L728.549 419.44V436.675L760.951 454.389V436.675Z" fill="#FBCA01" stroke="#FBCA01"/>
<path d="M762.05 227.695L729.647 210.459V227.695L762.05 245.409V227.695Z" fill="#FBCA01" stroke="#FBCA01"/>
<path d="M762.05 52.9459L729.647 35.7104V52.9459L762.05 70.6601V52.9459Z" fill="#FBCA01" stroke="#FBCA01"/>
<path d="M760.951 401.725L728.549 384.49V401.725L760.951 419.439V401.725Z" fill="#FBCA01" stroke="#FBCA01"/>
<path d="M762.05 192.505L729.647 175.27V192.505L762.05 210.22V192.505Z" fill="#FBCA01" stroke="#FBCA01"/>
<path d="M761.501 122.606L729.098 105.37V122.606L761.501 140.32V122.606Z" fill="#FBCA01" stroke="#FBCA01"/>
<path d="M760.402 471.385L728 454.15V471.385L760.402 489.1V471.385Z" fill="#FBCA01" stroke="#FBCA01"/>
<path d="M761.501 262.166L729.098 244.93V262.166L761.501 279.88V262.166Z" fill="#FBCA01" stroke="#FBCA01"/>
<path d="M761.501 297.115L729.098 279.88V297.115L761.501 314.83V297.115Z" fill="#FBCA01" stroke="#FBCA01"/>
<path d="M761.501 332.065L729.098 314.83V332.065L761.501 349.779V332.065Z" fill="#FBCA01" stroke="#FBCA01"/>
<path d="M1321 93.8395L1262 61V93.8395L1321 127.591V93.8395Z" fill="#FBCA01" stroke="#FBCA01"/>
<path d="M1321 363.84L1262 331V363.84L1321 397.591V363.84Z" fill="#FBCA01" stroke="#FBCA01"/>
<path d="M1321 230.022L1262 197.182V230.022L1321 263.774V230.022Z" fill="#FBCA01" stroke="#FBCA01"/>
<path d="M1321 496.387L1262 463.547V496.387L1321 530.139V496.387Z" fill="#FBCA01" stroke="#FBCA01"/>
<path d="M1321 163.431L1262 130.591V163.431L1321 197.182V163.431Z" fill="#FBCA01" stroke="#FBCA01"/>
<path d="M1321 429.34L1262 396.5V429.34L1321 463.091V429.34Z" fill="#FBCA01" stroke="#FBCA01"/>
<path d="M1321 295.84L1262 263V295.84L1321 329.591V295.84Z" fill="#FBCA01" stroke="#FBCA01"/>
<path d="M1321 561.84L1262 529V561.84L1321 595.591V561.84Z" fill="#FBCA01" stroke="#FBCA01"/>
<path d="M1321 628.84L1262 596V628.84L1321 662.591V628.84Z" fill="#FBCA01" stroke="#FBCA01"/>
<path d="M1321 695.84L1262 663V695.84L1321 729.591V695.84Z" fill="#FBCA01" stroke="#FBCA01"/>
<path d="M1009.54 584.811V793H1321V588.473" stroke="#FBCA01" stroke-width="4"/>
<rect x="730" y="540" width="142" height="121" stroke="#FBCA01" stroke-width="4"/>
<path d="M797 743L808.091 726H813L802 743L813 760H808.091L797 743Z" fill="#FBCA01" stroke="#FBCA01" stroke-width="2"/>
<path d="M733 743L744.091 726H749L738 743L749 760H744.091L733 743Z" fill="#FBCA01" stroke="#FBCA01" stroke-width="2"/>
<path d="M829 743L840.091 726H845L834 743L845 760H840.091L829 743Z" fill="#FBCA01" stroke="#FBCA01" stroke-width="2"/>
<path d="M765 743L776.091 726H781L770 743L781 760H776.091L765 743Z" fill="#FBCA01" stroke="#FBCA01" stroke-width="2"/>
<path d="M813 743L824.091 726H829L818 743L829 760H824.091L813 743Z" fill="#FBCA01" stroke="#FBCA01" stroke-width="2"/>
<path d="M749 743.5L760.091 727H765L754 743.5L765 760H760.091L749 743.5Z" fill="#FBCA01" stroke="#FBCA01" stroke-width="2"/>
<path d="M845 743L856.091 726H861L850 743L861 760H856.091L845 743Z" fill="#FBCA01" stroke="#FBCA01" stroke-width="2"/>
<path d="M781 743L792.091 726H797L786 743L797 760H792.091L781 743Z" fill="#FBCA01" stroke="#FBCA01" stroke-width="2"/>
<path d="M34.4516 46.4748L2.09677 30V46.4748L34.4516 63.4072V46.4748Z" fill="#FBCA01" stroke="#FBCA01"/>
<path d="M33.3548 379.86L1 363.386V379.86L33.3548 396.793V379.86Z" fill="#FBCA01" stroke="#FBCA01"/>
<path d="M34.4516 179.875L2.09677 163.4V179.875L34.4516 196.807V179.875Z" fill="#FBCA01" stroke="#FBCA01"/>
<path d="M33.3548 513.26L1 496.786V513.26L33.3548 530.193V513.26Z" fill="#FBCA01" stroke="#FBCA01"/>
<path d="M35 113.06L2.64517 96.5856V113.06L35 129.993V113.06Z" fill="#FBCA01" stroke="#FBCA01"/>
<path d="M33.9032 446.446L1.5484 429.971V446.446L33.9032 463.378V446.446Z" fill="#FBCA01" stroke="#FBCA01"/>
<path d="M35 246.689L2.64517 230.214V246.689L35 263.622V246.689Z" fill="#FBCA01" stroke="#FBCA01"/>
<path d="M33.9032 580.075L1.5484 563.6V580.075L33.9032 597.007V580.075Z" fill="#FBCA01" stroke="#FBCA01"/>
<path d="M35 79.6532L2.64517 63.1784V79.6532L35 96.5856V79.6532Z" fill="#FBCA01" stroke="#FBCA01"/>
<path d="M33.9032 413.039L1.5484 396.564V413.039L33.9032 429.971V413.039Z" fill="#FBCA01" stroke="#FBCA01"/>
<path d="M35 213.053L2.64517 196.578V213.053L35 229.986V213.053Z" fill="#FBCA01" stroke="#FBCA01"/>
<path d="M33.9032 546.439L1.5484 529.964V546.439L33.9032 563.371V546.439Z" fill="#FBCA01" stroke="#FBCA01"/>
<path d="M34.4516 146.239L2.09677 129.764V146.239L34.4516 163.171V146.239Z" fill="#FBCA01" stroke="#FBCA01"/>
<path d="M33.3548 479.624L1 463.15V479.624L33.3548 496.557V479.624Z" fill="#FBCA01" stroke="#FBCA01"/>
<path d="M34.4516 279.639L2.09677 263.164V279.639L34.4516 296.571V279.639Z" fill="#FBCA01" stroke="#FBCA01"/>
<path d="M33.3548 613.024L1 596.55V613.024L33.3548 629.957V613.024Z" fill="#FBCA01" stroke="#FBCA01"/>
<path d="M34.4516 313.046L2.09677 296.571V313.046L34.4516 329.978V313.046Z" fill="#FBCA01" stroke="#FBCA01"/>
<path d="M33.3548 646.432L1 629.957V646.432L33.3548 663.364V646.432Z" fill="#FBCA01" stroke="#FBCA01"/>
<path d="M34.4516 346.453L2.09677 329.978V346.453L34.4516 363.386V346.453Z" fill="#FBCA01" stroke="#FBCA01"/>
<path d="M33.3548 679.839L1 663.364V679.839L33.3548 696.771V679.839Z" fill="#FBCA01" stroke="#FBCA01"/>
</svg>
