<svg width="86" height="78" viewBox="0 0 86 78" fill="none" xmlns="http://www.w3.org/2000/svg">
<mask id="path-1-outside-1_15_241" maskUnits="userSpaceOnUse" x="0" y="-0.866608" width="86" height="79" fill="black">
<rect fill="white" y="-0.866608" width="86" height="79"/>
<path d="M53.3028 1.13529C48.8127 1.82436 43.9892 4.06942 41.4329 6.6479C39.1212 8.9374 38.9433 10.6934 40.8105 12.3383C41.4329 12.894 41.4774 13.0719 41.633 15.1169C41.7663 17.0507 41.8552 17.3841 42.3443 17.9176L42.9222 18.5178L42.5443 20.4294C42.0998 22.6967 42.2554 23.0968 43.4557 22.919C44.167 22.7856 44.1892 22.8078 44.1892 23.5636C44.1892 24.2304 44.2781 24.3416 44.8338 24.4527C45.434 24.5861 45.4562 24.6083 45.1673 25.164C44.8561 25.7642 45.0783 26.3199 45.634 26.3199C45.7896 26.3199 45.9675 26.72 46.0342 27.2313C46.1898 28.3871 46.7232 28.9873 47.6124 28.9873C47.9902 28.9873 49.235 28.6316 50.3909 28.2093C51.5245 27.7647 52.5693 27.4535 52.7249 27.498C52.9916 27.5869 53.5473 30.4988 53.3028 30.6544C53.2139 30.6989 51.4578 30.8989 49.3906 31.099C45.0117 31.5213 42.3665 32.077 40.6549 32.9217C39.0323 33.7441 36.6761 36.0781 35.7869 37.7897L35.0756 39.1456L33.4085 39.0345C29.9409 38.8122 27.0068 40.5015 25.4953 43.569C25.0951 44.347 24.7395 44.9694 24.695 44.9027C24.5617 44.7916 21.9165 36.0781 21.8054 35.4112C21.7387 35.0334 22.0054 34.2109 22.6056 33.0106L23.5169 31.2101L24.1616 31.5213C24.7395 31.8325 25.0507 31.788 28.3182 30.9434C30.2743 30.4321 31.9859 29.9431 32.1193 29.8097C32.2749 29.6986 32.8973 28.6761 33.5197 27.5424C34.7867 25.2085 34.7867 25.2752 34.231 20.8517L33.8308 17.7398L31.6969 15.0502L29.5408 12.3828L27.3624 12.7829C26.1621 13.0274 24.0504 13.5831 22.65 14.0277L20.116 14.8723L18.8712 17.7398C17.7376 20.3849 17.5598 20.6295 16.9374 20.8073C16.5373 20.8962 16.0705 21.2296 15.8704 21.5408C15.6704 21.852 15.3592 22.0965 15.1591 22.0965C14.9813 22.0965 14.5812 22.341 14.3144 22.63C13.6031 23.3191 13.1586 23.4747 12.8474 23.0968C12.6696 22.8745 12.1583 22.8301 10.7802 22.919C9.31309 23.0079 8.44619 23.2302 6.40119 24.0304C5.00081 24.5639 3.7338 25.1418 3.60043 25.2752C3.46706 25.4308 3.04473 26.8978 2.66685 28.5427L2 31.5435L2.68908 34.3665L3.37815 37.2117L6.00108 38.2342L8.60179 39.279L11.2692 38.4343C12.7585 37.9675 14.0255 37.6341 14.0922 37.723C14.1589 37.7897 14.3144 40.6349 14.4034 44.0358C14.6701 52.6604 15.3369 56.6614 17.293 61.3961C17.8043 62.6408 18.2711 63.6633 18.3378 63.6633C18.3822 63.6633 18.8046 63.4633 19.2491 63.241C20.605 62.5519 22.45 62.1518 27.2957 61.5517C33.8086 60.7292 36.4316 60.0624 38.5655 58.7509C38.9878 58.4842 39.3657 58.3286 39.4101 58.373C39.4546 58.4175 40.3437 60.1957 41.3662 62.3297L43.2112 66.2196L42.9444 69.9984C42.7888 72.0656 42.6332 74.3107 42.5666 74.9553L42.4776 76.1334L43.8336 76.0667L45.1895 76L45.2339 74.1106C45.3895 68.5091 46.1008 60.1068 46.4565 59.7512C46.5232 59.7067 46.8788 59.7734 47.2789 59.8845L47.9902 60.0846L47.5234 59.3733C46.5232 57.884 45.7007 55.7501 44.945 52.7048C44.5226 50.971 44.0114 49.3039 43.8113 49.0149C43.4779 48.5037 43.4779 48.5037 42.611 50.0597C40.7661 53.4161 37.5207 55.8168 32.675 57.4394C31.608 57.7951 28.5183 58.5953 25.8065 59.2177C23.0724 59.8401 20.5161 60.4847 20.0716 60.6625C19.6492 60.8404 19.1824 60.996 19.0046 60.996C18.6712 60.996 17.6487 58.4619 17.0485 56.1057C16.0705 52.3936 15.2925 44.9694 15.2925 39.6124V36.3448L13.2919 33.833L11.2914 31.3212V28.8761C11.2914 27.009 11.3803 26.2977 11.6471 25.9198C11.8249 25.653 12.0472 25.4308 12.1361 25.4308C12.225 25.4308 12.2917 26.2088 12.2472 27.1423L12.225 28.8761L12.4917 26.6089C12.6251 25.3641 12.8029 24.2971 12.8474 24.2527C12.9141 24.2082 13.1808 24.0304 13.4698 23.897L13.981 23.6303L13.8254 25.7864C13.7143 27.3868 13.7365 27.8981 13.9366 27.787C14.0699 27.698 14.1811 27.1646 14.2033 26.5866C14.2255 24.6528 14.5367 23.1635 14.9591 22.8523C15.8037 22.2299 15.8927 22.4299 15.7815 24.9862C15.7148 26.72 15.7593 27.4313 15.9371 27.4313C16.0705 27.4313 16.1816 27.4091 16.1816 27.3646C16.2038 27.3424 16.2483 26.1198 16.3372 24.6528C16.4706 21.8965 16.6484 21.363 17.5375 21.1407C17.7598 21.074 18.0043 21.1185 18.071 21.2296C18.1377 21.3185 18.4711 22.9634 18.8268 24.8528C19.1824 26.7645 19.5825 28.476 19.7381 28.6761C19.916 28.8539 20.5606 29.2762 21.1607 29.5874C21.7831 29.8986 22.3166 30.1876 22.3611 30.2098C22.4055 30.2543 21.8943 31.1434 21.2274 32.2104L20.0271 34.1442L20.4494 35.5002C21.183 37.923 24.2505 47.3256 24.3394 47.4812C24.3838 47.5701 24.8506 46.8366 25.3619 45.8141C26.6511 43.28 28.9184 40.9683 30.6078 40.4571C32.097 40.0125 32.8083 40.0125 34.5199 40.4348C35.2535 40.6127 35.9648 40.746 36.0981 40.7683C36.2093 40.7683 36.4982 40.2792 36.7205 39.6791C37.2762 38.1009 38.9433 36.1892 40.6327 35.1667C43.3668 33.5218 46.9455 32.6994 53.0583 32.2993C55.0811 32.1659 56.7704 32.0548 56.7704 32.0326C56.7926 32.0103 56.1702 29.9876 55.37 27.5647L53.9252 23.1413L53.5028 24.0971C52.6359 26.0087 51.3022 27.1646 49.1906 27.7647C47.6124 28.2315 47.5457 28.1426 47.7013 26.0976C47.7902 24.6083 47.7902 24.5416 47.0122 23.608C45.8119 22.141 45.3006 20.874 45.3006 19.2735V17.8732L44.2559 17.3841L43.1889 16.8729L42.9889 15.0057C42.7888 13.2052 42.8111 13.1385 43.3223 12.7384C43.6113 12.5162 44.3893 12.1605 45.0339 11.9382C46.1453 11.5826 46.212 11.5826 46.5232 12.0049C46.8788 12.4939 47.19 14.161 46.99 14.6501C46.9233 14.8501 47.0567 15.0724 47.3234 15.228C47.5901 15.3614 48.1681 15.8282 48.6571 16.2505C49.4573 16.984 49.5684 17.0285 50.1686 16.7617C50.5687 16.6061 50.8799 16.2727 50.9688 15.9171C51.4801 13.8498 53.4584 14.25 53.8807 16.495C54.0363 17.2508 53.7918 18.9846 53.4139 19.9182C53.1694 20.5183 53.7918 20.4294 54.7921 19.7403C55.5923 19.1846 55.7257 19.1624 57.7484 19.2958C58.9043 19.3624 60.238 19.4291 60.6826 19.4291C61.3716 19.4291 61.7273 19.6292 62.8609 20.6739C65.3727 23.0301 67.2621 26.0087 67.5066 27.987C67.64 29.0317 67.6845 29.0984 68.3069 29.1429C68.6847 29.1873 69.7295 29.3207 70.6408 29.4541C76.0423 30.2321 79.421 31.8547 82.2217 34.9889C82.9997 35.8336 83.6888 36.5449 83.7555 36.5449C83.8444 36.5449 83.9111 36.0336 83.9555 35.4112L84 34.2998L82.3773 32.7439C79.7766 30.2765 76.6202 28.9206 72.797 28.6094L71.0632 28.476L67.8623 24.0082C66.1063 21.5408 64.4169 19.1846 64.1279 18.7623C63.5945 18.0288 63.5278 17.6731 63.1944 12.9829C62.8832 8.62621 62.772 7.82599 62.3052 6.80349C61.6384 5.33643 59.3711 3.02469 57.8596 2.2467C56.7259 1.69099 54.5253 0.957466 54.103 1.00192C53.9696 1.02415 53.614 1.0686 53.3028 1.13529ZM23.4725 16.5839L22.3833 18.8734L20.7162 19.4958C19.7826 19.8515 19.0046 20.096 18.9602 20.0515C18.9157 20.0071 19.338 18.9179 19.8937 17.6286L20.9162 15.2725L22.6056 14.7167C23.5392 14.4056 24.3616 14.1833 24.4283 14.2277C24.5172 14.2722 24.0726 15.3391 23.4725 16.5839ZM23.0501 23.7859C23.8504 26.5644 23.9615 27.2979 23.7392 27.4313C23.4947 27.5869 21.3608 27.9426 20.5384 27.987C20.2716 27.987 18.8046 21.363 19.0268 21.1629C19.2269 20.9851 21.2719 20.3627 21.7387 20.3405C22.0054 20.3183 22.3388 21.2074 23.0501 23.7859ZM6.57902 27.0312C6.22337 28.2982 5.80103 29.4318 5.66766 29.5874C5.11195 30.1432 2.84467 31.2323 2.84467 30.9434C2.84467 30.7878 3.1781 29.6097 3.57821 28.3204L4.31174 25.9865L5.51206 25.3641C6.15668 25.0307 6.82353 24.7639 6.97913 24.7639C7.15695 24.7639 7.02358 25.4752 6.57902 27.0312ZM25.6286 28.6539C26.1843 29.0762 26.829 29.5208 27.029 29.6319C27.5403 29.9209 27.3402 30.0765 25.9398 30.3654C24.7395 30.6099 24.7395 30.6099 23.0279 29.6319C22.0721 29.0984 21.2941 28.5872 21.2941 28.5205C21.2941 28.3871 23.2502 27.9648 24.1171 27.8981C24.4061 27.8981 25.0729 28.2315 25.6286 28.6539ZM6.49011 32.5438C6.71239 33.5885 6.93467 34.6333 6.97913 34.9C7.09027 35.2779 6.91244 35.4557 5.97886 35.8336C5.37869 36.1003 4.73407 36.3226 4.57848 36.3226C4.33397 36.3226 3.93386 35.189 3.13364 32.1437C3.0225 31.7214 3.20033 31.5658 4.42288 31.0101C5.20087 30.6544 5.91217 30.4321 5.97886 30.521C6.04554 30.5877 6.29005 31.4991 6.49011 32.5438ZM9.73543 36.656C11.8249 37.4562 11.8249 37.434 9.53538 38.1231C8.5351 38.4121 8.17945 38.3454 5.95663 37.3673L4.95636 36.945L6.06777 36.4115C6.69016 36.1225 7.33478 35.878 7.51261 35.9003C7.69043 35.9003 8.6907 36.2337 9.73543 36.656Z"/>
</mask>
<path d="M53.3028 1.13529C48.8127 1.82436 43.9892 4.06942 41.4329 6.6479C39.1212 8.9374 38.9433 10.6934 40.8105 12.3383C41.4329 12.894 41.4774 13.0719 41.633 15.1169C41.7663 17.0507 41.8552 17.3841 42.3443 17.9176L42.9222 18.5178L42.5443 20.4294C42.0998 22.6967 42.2554 23.0968 43.4557 22.919C44.167 22.7856 44.1892 22.8078 44.1892 23.5636C44.1892 24.2304 44.2781 24.3416 44.8338 24.4527C45.434 24.5861 45.4562 24.6083 45.1673 25.164C44.8561 25.7642 45.0783 26.3199 45.634 26.3199C45.7896 26.3199 45.9675 26.72 46.0342 27.2313C46.1898 28.3871 46.7232 28.9873 47.6124 28.9873C47.9902 28.9873 49.235 28.6316 50.3909 28.2093C51.5245 27.7647 52.5693 27.4535 52.7249 27.498C52.9916 27.5869 53.5473 30.4988 53.3028 30.6544C53.2139 30.6989 51.4578 30.8989 49.3906 31.099C45.0117 31.5213 42.3665 32.077 40.6549 32.9217C39.0323 33.7441 36.6761 36.0781 35.7869 37.7897L35.0756 39.1456L33.4085 39.0345C29.9409 38.8122 27.0068 40.5015 25.4953 43.569C25.0951 44.347 24.7395 44.9694 24.695 44.9027C24.5617 44.7916 21.9165 36.0781 21.8054 35.4112C21.7387 35.0334 22.0054 34.2109 22.6056 33.0106L23.5169 31.2101L24.1616 31.5213C24.7395 31.8325 25.0507 31.788 28.3182 30.9434C30.2743 30.4321 31.9859 29.9431 32.1193 29.8097C32.2749 29.6986 32.8973 28.6761 33.5197 27.5424C34.7867 25.2085 34.7867 25.2752 34.231 20.8517L33.8308 17.7398L31.6969 15.0502L29.5408 12.3828L27.3624 12.7829C26.1621 13.0274 24.0504 13.5831 22.65 14.0277L20.116 14.8723L18.8712 17.7398C17.7376 20.3849 17.5598 20.6295 16.9374 20.8073C16.5373 20.8962 16.0705 21.2296 15.8704 21.5408C15.6704 21.852 15.3592 22.0965 15.1591 22.0965C14.9813 22.0965 14.5812 22.341 14.3144 22.63C13.6031 23.3191 13.1586 23.4747 12.8474 23.0968C12.6696 22.8745 12.1583 22.8301 10.7802 22.919C9.31309 23.0079 8.44619 23.2302 6.40119 24.0304C5.00081 24.5639 3.7338 25.1418 3.60043 25.2752C3.46706 25.4308 3.04473 26.8978 2.66685 28.5427L2 31.5435L2.68908 34.3665L3.37815 37.2117L6.00108 38.2342L8.60179 39.279L11.2692 38.4343C12.7585 37.9675 14.0255 37.6341 14.0922 37.723C14.1589 37.7897 14.3144 40.6349 14.4034 44.0358C14.6701 52.6604 15.3369 56.6614 17.293 61.3961C17.8043 62.6408 18.2711 63.6633 18.3378 63.6633C18.3822 63.6633 18.8046 63.4633 19.2491 63.241C20.605 62.5519 22.45 62.1518 27.2957 61.5517C33.8086 60.7292 36.4316 60.0624 38.5655 58.7509C38.9878 58.4842 39.3657 58.3286 39.4101 58.373C39.4546 58.4175 40.3437 60.1957 41.3662 62.3297L43.2112 66.2196L42.9444 69.9984C42.7888 72.0656 42.6332 74.3107 42.5666 74.9553L42.4776 76.1334L43.8336 76.0667L45.1895 76L45.2339 74.1106C45.3895 68.5091 46.1008 60.1068 46.4565 59.7512C46.5232 59.7067 46.8788 59.7734 47.2789 59.8845L47.9902 60.0846L47.5234 59.3733C46.5232 57.884 45.7007 55.7501 44.945 52.7048C44.5226 50.971 44.0114 49.3039 43.8113 49.0149C43.4779 48.5037 43.4779 48.5037 42.611 50.0597C40.7661 53.4161 37.5207 55.8168 32.675 57.4394C31.608 57.7951 28.5183 58.5953 25.8065 59.2177C23.0724 59.8401 20.5161 60.4847 20.0716 60.6625C19.6492 60.8404 19.1824 60.996 19.0046 60.996C18.6712 60.996 17.6487 58.4619 17.0485 56.1057C16.0705 52.3936 15.2925 44.9694 15.2925 39.6124V36.3448L13.2919 33.833L11.2914 31.3212V28.8761C11.2914 27.009 11.3803 26.2977 11.6471 25.9198C11.8249 25.653 12.0472 25.4308 12.1361 25.4308C12.225 25.4308 12.2917 26.2088 12.2472 27.1423L12.225 28.8761L12.4917 26.6089C12.6251 25.3641 12.8029 24.2971 12.8474 24.2527C12.9141 24.2082 13.1808 24.0304 13.4698 23.897L13.981 23.6303L13.8254 25.7864C13.7143 27.3868 13.7365 27.8981 13.9366 27.787C14.0699 27.698 14.1811 27.1646 14.2033 26.5866C14.2255 24.6528 14.5367 23.1635 14.9591 22.8523C15.8037 22.2299 15.8927 22.4299 15.7815 24.9862C15.7148 26.72 15.7593 27.4313 15.9371 27.4313C16.0705 27.4313 16.1816 27.4091 16.1816 27.3646C16.2038 27.3424 16.2483 26.1198 16.3372 24.6528C16.4706 21.8965 16.6484 21.363 17.5375 21.1407C17.7598 21.074 18.0043 21.1185 18.071 21.2296C18.1377 21.3185 18.4711 22.9634 18.8268 24.8528C19.1824 26.7645 19.5825 28.476 19.7381 28.6761C19.916 28.8539 20.5606 29.2762 21.1607 29.5874C21.7831 29.8986 22.3166 30.1876 22.3611 30.2098C22.4055 30.2543 21.8943 31.1434 21.2274 32.2104L20.0271 34.1442L20.4494 35.5002C21.183 37.923 24.2505 47.3256 24.3394 47.4812C24.3838 47.5701 24.8506 46.8366 25.3619 45.8141C26.6511 43.28 28.9184 40.9683 30.6078 40.4571C32.097 40.0125 32.8083 40.0125 34.5199 40.4348C35.2535 40.6127 35.9648 40.746 36.0981 40.7683C36.2093 40.7683 36.4982 40.2792 36.7205 39.6791C37.2762 38.1009 38.9433 36.1892 40.6327 35.1667C43.3668 33.5218 46.9455 32.6994 53.0583 32.2993C55.0811 32.1659 56.7704 32.0548 56.7704 32.0326C56.7926 32.0103 56.1702 29.9876 55.37 27.5647L53.9252 23.1413L53.5028 24.0971C52.6359 26.0087 51.3022 27.1646 49.1906 27.7647C47.6124 28.2315 47.5457 28.1426 47.7013 26.0976C47.7902 24.6083 47.7902 24.5416 47.0122 23.608C45.8119 22.141 45.3006 20.874 45.3006 19.2735V17.8732L44.2559 17.3841L43.1889 16.8729L42.9889 15.0057C42.7888 13.2052 42.8111 13.1385 43.3223 12.7384C43.6113 12.5162 44.3893 12.1605 45.0339 11.9382C46.1453 11.5826 46.212 11.5826 46.5232 12.0049C46.8788 12.4939 47.19 14.161 46.99 14.6501C46.9233 14.8501 47.0567 15.0724 47.3234 15.228C47.5901 15.3614 48.1681 15.8282 48.6571 16.2505C49.4573 16.984 49.5684 17.0285 50.1686 16.7617C50.5687 16.6061 50.8799 16.2727 50.9688 15.9171C51.4801 13.8498 53.4584 14.25 53.8807 16.495C54.0363 17.2508 53.7918 18.9846 53.4139 19.9182C53.1694 20.5183 53.7918 20.4294 54.7921 19.7403C55.5923 19.1846 55.7257 19.1624 57.7484 19.2958C58.9043 19.3624 60.238 19.4291 60.6826 19.4291C61.3716 19.4291 61.7273 19.6292 62.8609 20.6739C65.3727 23.0301 67.2621 26.0087 67.5066 27.987C67.64 29.0317 67.6845 29.0984 68.3069 29.1429C68.6847 29.1873 69.7295 29.3207 70.6408 29.4541C76.0423 30.2321 79.421 31.8547 82.2217 34.9889C82.9997 35.8336 83.6888 36.5449 83.7555 36.5449C83.8444 36.5449 83.9111 36.0336 83.9555 35.4112L84 34.2998L82.3773 32.7439C79.7766 30.2765 76.6202 28.9206 72.797 28.6094L71.0632 28.476L67.8623 24.0082C66.1063 21.5408 64.4169 19.1846 64.1279 18.7623C63.5945 18.0288 63.5278 17.6731 63.1944 12.9829C62.8832 8.62621 62.772 7.82599 62.3052 6.80349C61.6384 5.33643 59.3711 3.02469 57.8596 2.2467C56.7259 1.69099 54.5253 0.957466 54.103 1.00192C53.9696 1.02415 53.614 1.0686 53.3028 1.13529ZM23.4725 16.5839L22.3833 18.8734L20.7162 19.4958C19.7826 19.8515 19.0046 20.096 18.9602 20.0515C18.9157 20.0071 19.338 18.9179 19.8937 17.6286L20.9162 15.2725L22.6056 14.7167C23.5392 14.4056 24.3616 14.1833 24.4283 14.2277C24.5172 14.2722 24.0726 15.3391 23.4725 16.5839ZM23.0501 23.7859C23.8504 26.5644 23.9615 27.2979 23.7392 27.4313C23.4947 27.5869 21.3608 27.9426 20.5384 27.987C20.2716 27.987 18.8046 21.363 19.0268 21.1629C19.2269 20.9851 21.2719 20.3627 21.7387 20.3405C22.0054 20.3183 22.3388 21.2074 23.0501 23.7859ZM6.57902 27.0312C6.22337 28.2982 5.80103 29.4318 5.66766 29.5874C5.11195 30.1432 2.84467 31.2323 2.84467 30.9434C2.84467 30.7878 3.1781 29.6097 3.57821 28.3204L4.31174 25.9865L5.51206 25.3641C6.15668 25.0307 6.82353 24.7639 6.97913 24.7639C7.15695 24.7639 7.02358 25.4752 6.57902 27.0312ZM25.6286 28.6539C26.1843 29.0762 26.829 29.5208 27.029 29.6319C27.5403 29.9209 27.3402 30.0765 25.9398 30.3654C24.7395 30.6099 24.7395 30.6099 23.0279 29.6319C22.0721 29.0984 21.2941 28.5872 21.2941 28.5205C21.2941 28.3871 23.2502 27.9648 24.1171 27.8981C24.4061 27.8981 25.0729 28.2315 25.6286 28.6539ZM6.49011 32.5438C6.71239 33.5885 6.93467 34.6333 6.97913 34.9C7.09027 35.2779 6.91244 35.4557 5.97886 35.8336C5.37869 36.1003 4.73407 36.3226 4.57848 36.3226C4.33397 36.3226 3.93386 35.189 3.13364 32.1437C3.0225 31.7214 3.20033 31.5658 4.42288 31.0101C5.20087 30.6544 5.91217 30.4321 5.97886 30.521C6.04554 30.5877 6.29005 31.4991 6.49011 32.5438ZM9.73543 36.656C11.8249 37.4562 11.8249 37.434 9.53538 38.1231C8.5351 38.4121 8.17945 38.3454 5.95663 37.3673L4.95636 36.945L6.06777 36.4115C6.69016 36.1225 7.33478 35.878 7.51261 35.9003C7.69043 35.9003 8.6907 36.2337 9.73543 36.656Z" fill="#F5F5F5"/>
<path d="M53.3028 1.13529C48.8127 1.82436 43.9892 4.06942 41.4329 6.6479C39.1212 8.9374 38.9433 10.6934 40.8105 12.3383C41.4329 12.894 41.4774 13.0719 41.633 15.1169C41.7663 17.0507 41.8552 17.3841 42.3443 17.9176L42.9222 18.5178L42.5443 20.4294C42.0998 22.6967 42.2554 23.0968 43.4557 22.919C44.167 22.7856 44.1892 22.8078 44.1892 23.5636C44.1892 24.2304 44.2781 24.3416 44.8338 24.4527C45.434 24.5861 45.4562 24.6083 45.1673 25.164C44.8561 25.7642 45.0783 26.3199 45.634 26.3199C45.7896 26.3199 45.9675 26.72 46.0342 27.2313C46.1898 28.3871 46.7232 28.9873 47.6124 28.9873C47.9902 28.9873 49.235 28.6316 50.3909 28.2093C51.5245 27.7647 52.5693 27.4535 52.7249 27.498C52.9916 27.5869 53.5473 30.4988 53.3028 30.6544C53.2139 30.6989 51.4578 30.8989 49.3906 31.099C45.0117 31.5213 42.3665 32.077 40.6549 32.9217C39.0323 33.7441 36.6761 36.0781 35.7869 37.7897L35.0756 39.1456L33.4085 39.0345C29.9409 38.8122 27.0068 40.5015 25.4953 43.569C25.0951 44.347 24.7395 44.9694 24.695 44.9027C24.5617 44.7916 21.9165 36.0781 21.8054 35.4112C21.7387 35.0334 22.0054 34.2109 22.6056 33.0106L23.5169 31.2101L24.1616 31.5213C24.7395 31.8325 25.0507 31.788 28.3182 30.9434C30.2743 30.4321 31.9859 29.9431 32.1193 29.8097C32.2749 29.6986 32.8973 28.6761 33.5197 27.5424C34.7867 25.2085 34.7867 25.2752 34.231 20.8517L33.8308 17.7398L31.6969 15.0502L29.5408 12.3828L27.3624 12.7829C26.1621 13.0274 24.0504 13.5831 22.65 14.0277L20.116 14.8723L18.8712 17.7398C17.7376 20.3849 17.5598 20.6295 16.9374 20.8073C16.5373 20.8962 16.0705 21.2296 15.8704 21.5408C15.6704 21.852 15.3592 22.0965 15.1591 22.0965C14.9813 22.0965 14.5812 22.341 14.3144 22.63C13.6031 23.3191 13.1586 23.4747 12.8474 23.0968C12.6696 22.8745 12.1583 22.8301 10.7802 22.919C9.31309 23.0079 8.44619 23.2302 6.40119 24.0304C5.00081 24.5639 3.7338 25.1418 3.60043 25.2752C3.46706 25.4308 3.04473 26.8978 2.66685 28.5427L2 31.5435L2.68908 34.3665L3.37815 37.2117L6.00108 38.2342L8.60179 39.279L11.2692 38.4343C12.7585 37.9675 14.0255 37.6341 14.0922 37.723C14.1589 37.7897 14.3144 40.6349 14.4034 44.0358C14.6701 52.6604 15.3369 56.6614 17.293 61.3961C17.8043 62.6408 18.2711 63.6633 18.3378 63.6633C18.3822 63.6633 18.8046 63.4633 19.2491 63.241C20.605 62.5519 22.45 62.1518 27.2957 61.5517C33.8086 60.7292 36.4316 60.0624 38.5655 58.7509C38.9878 58.4842 39.3657 58.3286 39.4101 58.373C39.4546 58.4175 40.3437 60.1957 41.3662 62.3297L43.2112 66.2196L42.9444 69.9984C42.7888 72.0656 42.6332 74.3107 42.5666 74.9553L42.4776 76.1334L43.8336 76.0667L45.1895 76L45.2339 74.1106C45.3895 68.5091 46.1008 60.1068 46.4565 59.7512C46.5232 59.7067 46.8788 59.7734 47.2789 59.8845L47.9902 60.0846L47.5234 59.3733C46.5232 57.884 45.7007 55.7501 44.945 52.7048C44.5226 50.971 44.0114 49.3039 43.8113 49.0149C43.4779 48.5037 43.4779 48.5037 42.611 50.0597C40.7661 53.4161 37.5207 55.8168 32.675 57.4394C31.608 57.7951 28.5183 58.5953 25.8065 59.2177C23.0724 59.8401 20.5161 60.4847 20.0716 60.6625C19.6492 60.8404 19.1824 60.996 19.0046 60.996C18.6712 60.996 17.6487 58.4619 17.0485 56.1057C16.0705 52.3936 15.2925 44.9694 15.2925 39.6124V36.3448L13.2919 33.833L11.2914 31.3212V28.8761C11.2914 27.009 11.3803 26.2977 11.6471 25.9198C11.8249 25.653 12.0472 25.4308 12.1361 25.4308C12.225 25.4308 12.2917 26.2088 12.2472 27.1423L12.225 28.8761L12.4917 26.6089C12.6251 25.3641 12.8029 24.2971 12.8474 24.2527C12.9141 24.2082 13.1808 24.0304 13.4698 23.897L13.981 23.6303L13.8254 25.7864C13.7143 27.3868 13.7365 27.8981 13.9366 27.787C14.0699 27.698 14.1811 27.1646 14.2033 26.5866C14.2255 24.6528 14.5367 23.1635 14.9591 22.8523C15.8037 22.2299 15.8927 22.4299 15.7815 24.9862C15.7148 26.72 15.7593 27.4313 15.9371 27.4313C16.0705 27.4313 16.1816 27.4091 16.1816 27.3646C16.2038 27.3424 16.2483 26.1198 16.3372 24.6528C16.4706 21.8965 16.6484 21.363 17.5375 21.1407C17.7598 21.074 18.0043 21.1185 18.071 21.2296C18.1377 21.3185 18.4711 22.9634 18.8268 24.8528C19.1824 26.7645 19.5825 28.476 19.7381 28.6761C19.916 28.8539 20.5606 29.2762 21.1607 29.5874C21.7831 29.8986 22.3166 30.1876 22.3611 30.2098C22.4055 30.2543 21.8943 31.1434 21.2274 32.2104L20.0271 34.1442L20.4494 35.5002C21.183 37.923 24.2505 47.3256 24.3394 47.4812C24.3838 47.5701 24.8506 46.8366 25.3619 45.8141C26.6511 43.28 28.9184 40.9683 30.6078 40.4571C32.097 40.0125 32.8083 40.0125 34.5199 40.4348C35.2535 40.6127 35.9648 40.746 36.0981 40.7683C36.2093 40.7683 36.4982 40.2792 36.7205 39.6791C37.2762 38.1009 38.9433 36.1892 40.6327 35.1667C43.3668 33.5218 46.9455 32.6994 53.0583 32.2993C55.0811 32.1659 56.7704 32.0548 56.7704 32.0326C56.7926 32.0103 56.1702 29.9876 55.37 27.5647L53.9252 23.1413L53.5028 24.0971C52.6359 26.0087 51.3022 27.1646 49.1906 27.7647C47.6124 28.2315 47.5457 28.1426 47.7013 26.0976C47.7902 24.6083 47.7902 24.5416 47.0122 23.608C45.8119 22.141 45.3006 20.874 45.3006 19.2735V17.8732L44.2559 17.3841L43.1889 16.8729L42.9889 15.0057C42.7888 13.2052 42.8111 13.1385 43.3223 12.7384C43.6113 12.5162 44.3893 12.1605 45.0339 11.9382C46.1453 11.5826 46.212 11.5826 46.5232 12.0049C46.8788 12.4939 47.19 14.161 46.99 14.6501C46.9233 14.8501 47.0567 15.0724 47.3234 15.228C47.5901 15.3614 48.1681 15.8282 48.6571 16.2505C49.4573 16.984 49.5684 17.0285 50.1686 16.7617C50.5687 16.6061 50.8799 16.2727 50.9688 15.9171C51.4801 13.8498 53.4584 14.25 53.8807 16.495C54.0363 17.2508 53.7918 18.9846 53.4139 19.9182C53.1694 20.5183 53.7918 20.4294 54.7921 19.7403C55.5923 19.1846 55.7257 19.1624 57.7484 19.2958C58.9043 19.3624 60.238 19.4291 60.6826 19.4291C61.3716 19.4291 61.7273 19.6292 62.8609 20.6739C65.3727 23.0301 67.2621 26.0087 67.5066 27.987C67.64 29.0317 67.6845 29.0984 68.3069 29.1429C68.6847 29.1873 69.7295 29.3207 70.6408 29.4541C76.0423 30.2321 79.421 31.8547 82.2217 34.9889C82.9997 35.8336 83.6888 36.5449 83.7555 36.5449C83.8444 36.5449 83.9111 36.0336 83.9555 35.4112L84 34.2998L82.3773 32.7439C79.7766 30.2765 76.6202 28.9206 72.797 28.6094L71.0632 28.476L67.8623 24.0082C66.1063 21.5408 64.4169 19.1846 64.1279 18.7623C63.5945 18.0288 63.5278 17.6731 63.1944 12.9829C62.8832 8.62621 62.772 7.82599 62.3052 6.80349C61.6384 5.33643 59.3711 3.02469 57.8596 2.2467C56.7259 1.69099 54.5253 0.957466 54.103 1.00192C53.9696 1.02415 53.614 1.0686 53.3028 1.13529ZM23.4725 16.5839L22.3833 18.8734L20.7162 19.4958C19.7826 19.8515 19.0046 20.096 18.9602 20.0515C18.9157 20.0071 19.338 18.9179 19.8937 17.6286L20.9162 15.2725L22.6056 14.7167C23.5392 14.4056 24.3616 14.1833 24.4283 14.2277C24.5172 14.2722 24.0726 15.3391 23.4725 16.5839ZM23.0501 23.7859C23.8504 26.5644 23.9615 27.2979 23.7392 27.4313C23.4947 27.5869 21.3608 27.9426 20.5384 27.987C20.2716 27.987 18.8046 21.363 19.0268 21.1629C19.2269 20.9851 21.2719 20.3627 21.7387 20.3405C22.0054 20.3183 22.3388 21.2074 23.0501 23.7859ZM6.57902 27.0312C6.22337 28.2982 5.80103 29.4318 5.66766 29.5874C5.11195 30.1432 2.84467 31.2323 2.84467 30.9434C2.84467 30.7878 3.1781 29.6097 3.57821 28.3204L4.31174 25.9865L5.51206 25.3641C6.15668 25.0307 6.82353 24.7639 6.97913 24.7639C7.15695 24.7639 7.02358 25.4752 6.57902 27.0312ZM25.6286 28.6539C26.1843 29.0762 26.829 29.5208 27.029 29.6319C27.5403 29.9209 27.3402 30.0765 25.9398 30.3654C24.7395 30.6099 24.7395 30.6099 23.0279 29.6319C22.0721 29.0984 21.2941 28.5872 21.2941 28.5205C21.2941 28.3871 23.2502 27.9648 24.1171 27.8981C24.4061 27.8981 25.0729 28.2315 25.6286 28.6539ZM6.49011 32.5438C6.71239 33.5885 6.93467 34.6333 6.97913 34.9C7.09027 35.2779 6.91244 35.4557 5.97886 35.8336C5.37869 36.1003 4.73407 36.3226 4.57848 36.3226C4.33397 36.3226 3.93386 35.189 3.13364 32.1437C3.0225 31.7214 3.20033 31.5658 4.42288 31.0101C5.20087 30.6544 5.91217 30.4321 5.97886 30.521C6.04554 30.5877 6.29005 31.4991 6.49011 32.5438ZM9.73543 36.656C11.8249 37.4562 11.8249 37.434 9.53538 38.1231C8.5351 38.4121 8.17945 38.3454 5.95663 37.3673L4.95636 36.945L6.06777 36.4115C6.69016 36.1225 7.33478 35.878 7.51261 35.9003C7.69043 35.9003 8.6907 36.2337 9.73543 36.656Z" stroke="black" stroke-width="2" mask="url(#path-1-outside-1_15_241)"/>
<path d="M66.3941 66.1206L66.3939 66.1215C66.2975 66.6036 66.2312 67.0175 66.1931 67.3439C66.1574 67.6502 66.1397 67.9313 66.1675 68.1165C66.1744 68.1627 66.1901 68.2483 66.2354 68.3355C66.2767 68.4151 66.4255 68.6378 66.7265 68.625C66.9591 68.6152 67.092 68.4602 67.1206 68.4268C67.1697 68.3693 67.2048 68.3079 67.2284 68.2622C67.3199 68.0852 67.4175 67.7872 67.5228 67.3936L67.525 67.3856L67.5249 67.3856C67.6338 66.9499 68.0982 65.269 68.5436 63.6878L68.5441 63.686C68.9918 62.0742 69.64 59.3261 69.9547 57.5286C70.4954 54.6445 70.5629 53.6767 70.5629 49.4373C70.5629 45.3427 70.4969 44.2743 70.0625 42.2852C70.0625 42.2849 70.0624 42.2845 70.0623 42.2842L69.5739 42.3909L66.3941 66.1206ZM66.3941 66.1206C66.8343 63.9416 67.5659 58.802 67.9654 55.1622L66.3941 66.1206ZM66.3364 67.8096C66.3364 67.8096 66.3368 67.809 66.3376 67.8076C66.3368 67.8089 66.3364 67.8095 66.3364 67.8096ZM67.9654 55.1621C68.1177 53.7699 68.2291 49.6858 68.2514 45.9459L67.9654 55.1621Z" fill="#F5F5F5" stroke="black"/>
</svg>
