<svg width="50" height="50" viewBox="0 0 50 50" fill="none" xmlns="http://www.w3.org/2000/svg">
<g clip-path="url(#clip0_15_263)">
<path d="M49.951 14.7001C49.8339 12.0434 49.4043 10.217 48.7888 8.63435C48.154 6.95441 47.1772 5.45036 45.8975 4.20004C44.6472 2.93026 43.1332 1.94359 41.4727 1.31862C39.8809 0.703186 38.064 0.273567 35.4073 0.156433C32.7308 0.0293789 31.8811 0 25.0927 0C18.3042 0 17.4545 0.0293789 14.7879 0.146513C12.1312 0.263647 10.3048 0.693647 8.72253 1.3087C7.04222 1.94359 5.53817 2.92034 4.28785 4.20004C3.01807 5.45036 2.03178 6.96433 1.40643 8.62481C0.791 10.217 0.361381 12.0335 0.244247 14.6902C0.117193 17.3668 0.0878143 18.2164 0.0878143 25.0049C0.0878143 31.7933 0.117193 32.643 0.234327 35.3096C0.351461 37.9663 0.781461 39.7928 1.39689 41.3754C2.03178 43.0554 3.01807 44.5594 4.28785 45.8097C5.53817 47.0795 7.05214 48.0662 8.71261 48.6912C10.3048 49.3066 12.1213 49.7362 14.7784 49.8533C17.4446 49.9709 18.2947 49.9998 25.0831 49.9998C31.8716 49.9998 32.7213 49.9709 35.3879 49.8533C38.0446 49.7362 39.871 49.3066 41.4533 48.6912C44.8135 47.392 47.4702 44.7353 48.7694 41.3754C49.3844 39.7832 49.8144 37.9663 49.9316 35.3096C50.0487 32.643 50.0781 31.7933 50.0781 25.0049C50.0781 18.2164 50.0682 17.3668 49.951 14.7001ZM45.4484 35.1143C45.3408 37.5562 44.9307 38.8748 44.5888 39.7539C43.7486 41.9321 42.0199 43.6609 39.8416 44.501C38.9626 44.8429 37.6344 45.2531 35.2021 45.3603C32.5648 45.4778 31.7739 45.5068 25.1026 45.5068C18.4313 45.5068 17.6304 45.4778 15.0027 45.3603C12.5609 45.2531 11.2423 44.8429 10.3632 44.501C9.27921 44.1004 8.29253 43.4655 7.49167 42.6353C6.66143 41.8245 6.02655 40.8477 5.62592 39.7638C5.28406 38.8847 4.8739 37.5562 4.76669 35.1242C4.64917 32.487 4.62017 31.6956 4.62017 25.0243C4.62017 18.353 4.64917 17.5522 4.76669 14.9249C4.8739 12.483 5.28406 11.1644 5.62592 10.2853C6.02655 9.20094 6.66143 8.21465 7.50159 7.4134C8.31199 6.58316 9.28875 5.94828 10.3731 5.54804C11.2522 5.20617 12.5807 4.79601 15.0127 4.68842C17.6499 4.57128 18.4412 4.5419 25.1121 4.5419C31.7934 4.5419 32.5843 4.57128 35.212 4.68842C37.6539 4.79601 38.9725 5.20617 39.8516 5.54804C40.9355 5.94828 41.9222 6.58316 42.7231 7.4134C43.5533 8.22419 44.1882 9.20094 44.5888 10.2853C44.9307 11.1644 45.3408 12.4925 45.4484 14.9249C45.5656 17.5621 45.5949 18.353 45.5949 25.0243C45.5949 31.6956 45.5656 32.477 45.4484 35.1143Z" fill="white"/>
<path d="M25.0927 12.1605C18.0017 12.1605 12.2484 17.9134 12.2484 25.0048C12.2484 32.0961 18.0017 37.8491 25.0927 37.8491C32.1841 37.8491 37.937 32.0961 37.937 25.0048C37.937 17.9134 32.1841 12.1605 25.0927 12.1605ZM25.0927 33.3365C20.4925 33.3365 16.761 29.6054 16.761 25.0048C16.761 20.4041 20.4925 16.673 25.0927 16.673C29.6934 16.673 33.4245 20.4041 33.4245 25.0048C33.4245 29.6054 29.6934 33.3365 25.0927 33.3365Z" fill="white"/>
<path d="M41.4438 11.6527C41.4438 13.3086 40.1012 14.6513 38.4449 14.6513C36.789 14.6513 35.4463 13.3086 35.4463 11.6527C35.4463 9.99645 36.789 8.65417 38.4449 8.65417C40.1012 8.65417 41.4438 9.99645 41.4438 11.6527Z" fill="white"/>
</g>
<defs>
<clipPath id="clip0_15_263">
<rect width="50" height="50" fill="white"/>
</clipPath>
</defs>
</svg>
