<svg aria-hidden="true" style="position: absolute; width: 0; height: 0; overflow: hidden;" version="1.1" xmlns="http://www.w3.org/2000/svg" xmlns:xlink="http://www.w3.org/1999/xlink">
<defs>
<symbol id="fa" viewBox="0 0 32 32">
<path fill="#fff" style="fill: var(--color1, #fff)" d="M21.329 5.313h2.921v-5.088c-0.504-0.069-2.237-0.225-4.256-0.225-4.212 0-7.097 2.649-7.097 7.519v4.481h-4.648v5.688h4.648v14.312h5.699v-14.311h4.46l0.708-5.688h-5.169v-3.919c0.001-1.644 0.444-2.769 2.735-2.769z"></path>
</symbol>
<symbol id="gym-logo" viewBox="0 0 35 32">
<path fill="#f5f5f5" style="fill: var(--color2, #f5f5f5)" d="M21.868 0.466c-1.842 0.283-3.821 1.204-4.87 2.262-0.948 0.939-1.021 1.66-0.255 2.335 0.255 0.228 0.274 0.301 0.337 1.14 0.055 0.793 0.091 0.93 0.292 1.149l0.237 0.246-0.155 0.784c-0.182 0.93-0.119 1.094 0.374 1.021 0.292-0.055 0.301-0.046 0.301 0.264 0 0.274 0.036 0.319 0.264 0.365 0.246 0.055 0.255 0.064 0.137 0.292-0.128 0.246-0.037 0.474 0.191 0.474 0.064 0 0.137 0.164 0.164 0.374 0.064 0.474 0.283 0.72 0.647 0.72 0.155 0 0.666-0.146 1.14-0.319 0.465-0.182 0.894-0.31 0.958-0.292 0.109 0.036 0.337 1.231 0.237 1.295-0.036 0.018-0.757 0.1-1.605 0.182-1.796 0.173-2.882 0.401-3.584 0.748-0.666 0.337-1.632 1.295-1.997 1.997l-0.292 0.556-0.684-0.046c-1.423-0.091-2.626 0.602-3.246 1.86-0.164 0.319-0.31 0.575-0.328 0.547-0.055-0.046-1.14-3.62-1.185-3.894-0.027-0.155 0.082-0.492 0.328-0.985l0.374-0.739 0.264 0.128c0.237 0.128 0.365 0.109 1.705-0.237 0.803-0.21 1.505-0.41 1.559-0.465 0.064-0.046 0.319-0.465 0.575-0.93 0.52-0.957 0.52-0.93 0.292-2.745l-0.164-1.277-0.875-1.103-0.885-1.094-0.894 0.164c-0.492 0.1-1.359 0.328-1.933 0.511l-1.040 0.346-0.511 1.176c-0.465 1.085-0.538 1.186-0.793 1.258-0.164 0.036-0.356 0.173-0.438 0.301s-0.21 0.228-0.292 0.228c-0.073 0-0.237 0.1-0.347 0.219-0.292 0.283-0.474 0.347-0.602 0.191-0.073-0.091-0.283-0.109-0.848-0.073-0.602 0.036-0.958 0.128-1.797 0.456-0.575 0.219-1.094 0.456-1.149 0.511-0.055 0.064-0.228 0.666-0.383 1.341l-0.274 1.231 0.283 1.158 0.283 1.167 1.076 0.419 1.067 0.429 1.094-0.347c0.611-0.191 1.131-0.328 1.158-0.292 0.027 0.027 0.091 1.195 0.128 2.59 0.109 3.538 0.383 5.18 1.185 7.122 0.21 0.511 0.401 0.93 0.429 0.93 0.018 0 0.191-0.082 0.374-0.173 0.556-0.283 1.313-0.447 3.301-0.693 2.672-0.337 3.748-0.611 4.623-1.149 0.173-0.109 0.328-0.173 0.346-0.155s0.383 0.748 0.802 1.623l0.757 1.596-0.109 1.55c-0.064 0.848-0.128 1.769-0.155 2.034l-0.037 0.483 1.113-0.055 0.018-0.775c0.064-2.298 0.356-5.745 0.502-5.891 0.027-0.018 0.173 0.009 0.337 0.055l0.292 0.082-0.192-0.292c-0.41-0.611-0.748-1.486-1.058-2.736-0.173-0.711-0.383-1.395-0.465-1.514-0.137-0.21-0.137-0.21-0.492 0.429-0.757 1.377-2.088 2.362-4.076 3.028-0.438 0.146-1.705 0.474-2.818 0.73-1.122 0.255-2.17 0.52-2.353 0.593-0.173 0.073-0.365 0.137-0.438 0.137-0.137 0-0.556-1.040-0.803-2.006-0.401-1.523-0.72-4.569-0.72-6.766v-1.341l-1.641-2.061v-1.003c0-0.766 0.036-1.058 0.146-1.213 0.073-0.109 0.164-0.201 0.201-0.201s0.064 0.319 0.046 0.702l-0.009 0.711 0.109-0.93c0.055-0.511 0.128-0.948 0.146-0.967 0.027-0.018 0.137-0.091 0.255-0.146l0.21-0.109-0.064 0.885c-0.046 0.657-0.036 0.866 0.046 0.821 0.055-0.037 0.1-0.255 0.109-0.492 0.009-0.793 0.137-1.404 0.31-1.532 0.346-0.255 0.383-0.173 0.337 0.875-0.027 0.711-0.009 1.003 0.064 1.003 0.055 0 0.1-0.009 0.1-0.027 0.009-0.009 0.027-0.511 0.064-1.113 0.055-1.131 0.128-1.35 0.492-1.441 0.091-0.027 0.191-0.009 0.219 0.036 0.027 0.036 0.164 0.711 0.31 1.486 0.146 0.784 0.31 1.486 0.374 1.569 0.073 0.073 0.337 0.246 0.584 0.374 0.255 0.128 0.474 0.246 0.492 0.255 0.018 0.018-0.191 0.383-0.465 0.821l-0.492 0.793 0.173 0.556c0.301 0.994 1.559 4.851 1.596 4.915 0.018 0.036 0.21-0.264 0.419-0.684 0.529-1.040 1.459-1.988 2.152-2.198 0.611-0.182 0.903-0.182 1.605-0.009 0.301 0.073 0.593 0.128 0.647 0.137 0.046 0 0.164-0.201 0.255-0.447 0.228-0.647 0.912-1.432 1.605-1.851 1.122-0.675 2.59-1.012 5.098-1.176 0.83-0.055 1.523-0.1 1.523-0.109 0.009-0.009-0.246-0.839-0.575-1.833l-0.593-1.815-0.173 0.392c-0.356 0.784-0.903 1.258-1.769 1.505-0.647 0.191-0.675 0.155-0.611-0.684 0.036-0.611 0.036-0.638-0.283-1.021-0.492-0.602-0.702-1.122-0.702-1.778v-0.574l-0.429-0.201-0.438-0.21-0.082-0.766c-0.082-0.739-0.073-0.766 0.137-0.93 0.119-0.091 0.438-0.237 0.702-0.328 0.456-0.146 0.483-0.146 0.611 0.027 0.146 0.201 0.274 0.885 0.192 1.085-0.027 0.082 0.027 0.173 0.137 0.237 0.109 0.055 0.347 0.246 0.547 0.42 0.328 0.301 0.374 0.319 0.62 0.21 0.164-0.064 0.292-0.201 0.328-0.346 0.21-0.848 1.021-0.684 1.195 0.237 0.064 0.31-0.036 1.021-0.192 1.404-0.1 0.246 0.155 0.21 0.565-0.073 0.328-0.228 0.383-0.237 1.213-0.182 0.474 0.027 1.021 0.055 1.204 0.055 0.283 0 0.429 0.082 0.894 0.511 1.030 0.967 1.806 2.189 1.906 3 0.055 0.429 0.073 0.456 0.328 0.474 0.155 0.018 0.584 0.073 0.957 0.128 2.216 0.319 3.602 0.985 4.751 2.271 0.319 0.347 0.602 0.638 0.629 0.638 0.036 0 0.064-0.21 0.082-0.465l0.018-0.456-0.666-0.638c-1.067-1.012-2.362-1.569-3.93-1.696l-0.711-0.055-1.313-1.833c-0.72-1.012-1.413-1.979-1.532-2.152-0.219-0.301-0.246-0.447-0.383-2.371-0.128-1.787-0.173-2.116-0.365-2.535-0.274-0.602-1.204-1.55-1.824-1.869-0.465-0.228-1.368-0.529-1.541-0.511-0.055 0.009-0.201 0.027-0.328 0.055zM9.63 6.804l-0.447 0.939-0.684 0.255c-0.383 0.146-0.702 0.246-0.72 0.228s0.155-0.465 0.383-0.994l0.419-0.967 0.693-0.228c0.383-0.128 0.72-0.219 0.748-0.201 0.036 0.018-0.146 0.456-0.392 0.967zM9.456 9.758c0.328 1.14 0.374 1.441 0.283 1.496-0.1 0.064-0.976 0.21-1.313 0.228-0.109 0-0.711-2.718-0.62-2.8 0.082-0.073 0.921-0.328 1.113-0.337 0.109-0.009 0.246 0.356 0.538 1.413zM2.699 11.090c-0.146 0.52-0.319 0.985-0.374 1.049-0.228 0.228-1.158 0.675-1.158 0.556 0-0.064 0.137-0.547 0.301-1.076l0.301-0.957 0.492-0.255c0.264-0.137 0.538-0.246 0.602-0.246 0.073 0 0.018 0.292-0.164 0.93zM10.514 11.755c0.228 0.173 0.492 0.356 0.575 0.401 0.21 0.119 0.128 0.182-0.447 0.301-0.492 0.1-0.492 0.1-1.195-0.301-0.392-0.219-0.711-0.429-0.711-0.456 0-0.055 0.803-0.228 1.158-0.255 0.119 0 0.392 0.137 0.62 0.31zM2.663 13.351c0.091 0.429 0.182 0.857 0.201 0.967 0.046 0.155-0.027 0.228-0.41 0.383-0.246 0.109-0.511 0.201-0.575 0.201-0.1 0-0.264-0.465-0.593-1.714-0.046-0.173 0.027-0.237 0.529-0.465 0.319-0.146 0.611-0.237 0.638-0.201 0.027 0.027 0.128 0.401 0.21 0.83zM3.994 15.038c0.857 0.328 0.857 0.319-0.082 0.602-0.41 0.119-0.556 0.091-1.468-0.31l-0.41-0.173 0.456-0.219c0.255-0.119 0.52-0.219 0.593-0.21 0.073 0 0.483 0.137 0.912 0.31z"></path>
<path fill="none" stroke="#000" style="stroke: var(--color3, #000)" stroke-linejoin="miter" stroke-linecap="butt" stroke-miterlimit="4" stroke-width="0.8205" d="M21.868 0.466c-1.842 0.283-3.821 1.204-4.87 2.262-0.948 0.939-1.021 1.66-0.255 2.335 0.255 0.228 0.274 0.301 0.337 1.14 0.055 0.793 0.091 0.93 0.292 1.149l0.237 0.246-0.155 0.784c-0.182 0.93-0.119 1.094 0.374 1.021 0.292-0.055 0.301-0.046 0.301 0.264 0 0.274 0.036 0.319 0.264 0.365 0.246 0.055 0.255 0.064 0.137 0.292-0.128 0.246-0.037 0.474 0.191 0.474 0.064 0 0.137 0.164 0.164 0.374 0.064 0.474 0.283 0.72 0.647 0.72 0.155 0 0.666-0.146 1.14-0.319 0.465-0.182 0.894-0.31 0.958-0.292 0.109 0.036 0.337 1.231 0.237 1.295-0.036 0.018-0.757 0.1-1.605 0.182-1.796 0.173-2.882 0.401-3.584 0.748-0.666 0.337-1.632 1.295-1.997 1.997l-0.292 0.556-0.684-0.046c-1.423-0.091-2.626 0.602-3.246 1.86-0.164 0.319-0.31 0.575-0.328 0.547-0.055-0.046-1.14-3.62-1.185-3.894-0.027-0.155 0.082-0.492 0.328-0.985l0.374-0.739 0.264 0.128c0.237 0.128 0.365 0.109 1.705-0.237 0.803-0.21 1.505-0.41 1.559-0.465 0.064-0.046 0.319-0.465 0.575-0.93 0.52-0.957 0.52-0.93 0.292-2.745l-0.164-1.277-0.875-1.103-0.885-1.094-0.894 0.164c-0.492 0.1-1.359 0.328-1.933 0.511l-1.040 0.346-0.511 1.176c-0.465 1.085-0.538 1.186-0.793 1.258-0.164 0.036-0.356 0.173-0.438 0.301s-0.21 0.228-0.292 0.228c-0.073 0-0.237 0.1-0.347 0.219-0.292 0.283-0.474 0.347-0.602 0.191-0.073-0.091-0.283-0.109-0.848-0.073-0.602 0.036-0.958 0.128-1.797 0.456-0.575 0.219-1.094 0.456-1.149 0.511-0.055 0.064-0.228 0.666-0.383 1.341l-0.274 1.231 0.283 1.158 0.283 1.167 1.076 0.419 1.067 0.429 1.094-0.347c0.611-0.191 1.131-0.328 1.158-0.292 0.027 0.027 0.091 1.195 0.128 2.59 0.109 3.538 0.383 5.18 1.185 7.122 0.21 0.511 0.401 0.93 0.429 0.93 0.018 0 0.191-0.082 0.374-0.173 0.556-0.283 1.313-0.447 3.301-0.693 2.672-0.337 3.748-0.611 4.623-1.149 0.173-0.109 0.328-0.173 0.346-0.155s0.383 0.748 0.802 1.623l0.757 1.596-0.109 1.55c-0.064 0.848-0.128 1.769-0.155 2.034l-0.037 0.483 1.113-0.055 0.018-0.775c0.064-2.298 0.356-5.745 0.502-5.891 0.027-0.018 0.173 0.009 0.337 0.055l0.292 0.082-0.192-0.292c-0.41-0.611-0.748-1.486-1.058-2.736-0.173-0.711-0.383-1.395-0.465-1.514-0.137-0.21-0.137-0.21-0.492 0.429-0.757 1.377-2.088 2.362-4.076 3.028-0.438 0.146-1.705 0.474-2.818 0.73-1.122 0.255-2.17 0.52-2.353 0.593-0.173 0.073-0.365 0.137-0.438 0.137-0.137 0-0.556-1.040-0.803-2.006-0.401-1.523-0.72-4.569-0.72-6.766v-1.341l-1.641-2.061v-1.003c0-0.766 0.036-1.058 0.146-1.213 0.073-0.109 0.164-0.201 0.201-0.201s0.064 0.319 0.046 0.702l-0.009 0.711 0.109-0.93c0.055-0.511 0.128-0.948 0.146-0.967 0.027-0.018 0.137-0.091 0.255-0.146l0.21-0.109-0.064 0.885c-0.046 0.657-0.036 0.866 0.046 0.821 0.055-0.037 0.1-0.255 0.109-0.492 0.009-0.793 0.137-1.404 0.31-1.532 0.346-0.255 0.383-0.173 0.337 0.875-0.027 0.711-0.009 1.003 0.064 1.003 0.055 0 0.1-0.009 0.1-0.027 0.009-0.009 0.027-0.511 0.064-1.113 0.055-1.131 0.128-1.35 0.492-1.441 0.091-0.027 0.191-0.009 0.219 0.036 0.027 0.036 0.164 0.711 0.31 1.486 0.146 0.784 0.31 1.486 0.374 1.569 0.073 0.073 0.337 0.246 0.584 0.374 0.255 0.128 0.474 0.246 0.492 0.255 0.018 0.018-0.191 0.383-0.465 0.821l-0.492 0.793 0.173 0.556c0.301 0.994 1.559 4.851 1.596 4.915 0.018 0.036 0.21-0.264 0.419-0.684 0.529-1.040 1.459-1.988 2.152-2.198 0.611-0.182 0.903-0.182 1.605-0.009 0.301 0.073 0.593 0.128 0.647 0.137 0.046 0 0.164-0.201 0.255-0.447 0.228-0.647 0.912-1.432 1.605-1.851 1.122-0.675 2.59-1.012 5.098-1.176 0.83-0.055 1.523-0.1 1.523-0.109 0.009-0.009-0.246-0.839-0.575-1.833l-0.593-1.815-0.173 0.392c-0.356 0.784-0.903 1.258-1.769 1.505-0.647 0.191-0.675 0.155-0.611-0.684 0.036-0.611 0.036-0.638-0.283-1.021-0.492-0.602-0.702-1.122-0.702-1.778v-0.574l-0.429-0.201-0.438-0.21-0.082-0.766c-0.082-0.739-0.073-0.766 0.137-0.93 0.119-0.091 0.438-0.237 0.702-0.328 0.456-0.146 0.483-0.146 0.611 0.027 0.146 0.201 0.274 0.885 0.192 1.085-0.027 0.082 0.027 0.173 0.137 0.237 0.109 0.055 0.347 0.246 0.547 0.42 0.328 0.301 0.374 0.319 0.62 0.21 0.164-0.064 0.292-0.201 0.328-0.346 0.21-0.848 1.021-0.684 1.195 0.237 0.064 0.31-0.036 1.021-0.192 1.404-0.1 0.246 0.155 0.21 0.565-0.073 0.328-0.228 0.383-0.237 1.213-0.182 0.474 0.027 1.021 0.055 1.204 0.055 0.283 0 0.429 0.082 0.894 0.511 1.030 0.967 1.806 2.189 1.906 3 0.055 0.429 0.073 0.456 0.328 0.474 0.155 0.018 0.584 0.073 0.957 0.128 2.216 0.319 3.602 0.985 4.751 2.271 0.319 0.347 0.602 0.638 0.629 0.638 0.036 0 0.064-0.21 0.082-0.465l0.018-0.456-0.666-0.638c-1.067-1.012-2.362-1.569-3.93-1.696l-0.711-0.055-1.313-1.833c-0.72-1.012-1.413-1.979-1.532-2.152-0.219-0.301-0.246-0.447-0.383-2.371-0.128-1.787-0.173-2.116-0.365-2.535-0.274-0.602-1.204-1.55-1.824-1.869-0.465-0.228-1.368-0.529-1.541-0.511-0.055 0.009-0.201 0.027-0.328 0.055zM9.63 6.804l-0.447 0.939-0.684 0.255c-0.383 0.146-0.702 0.246-0.72 0.228s0.155-0.465 0.383-0.994l0.419-0.967 0.693-0.228c0.383-0.128 0.72-0.219 0.748-0.201 0.036 0.018-0.146 0.456-0.392 0.967zM9.456 9.758c0.328 1.14 0.374 1.441 0.283 1.496-0.1 0.064-0.976 0.21-1.313 0.228-0.109 0-0.711-2.718-0.62-2.8 0.082-0.073 0.921-0.328 1.113-0.337 0.109-0.009 0.246 0.356 0.538 1.413zM2.699 11.090c-0.146 0.52-0.319 0.985-0.374 1.049-0.228 0.228-1.158 0.675-1.158 0.556 0-0.064 0.137-0.547 0.301-1.076l0.301-0.957 0.492-0.255c0.264-0.137 0.538-0.246 0.602-0.246 0.073 0 0.018 0.292-0.164 0.93zM10.514 11.755c0.228 0.173 0.492 0.356 0.575 0.401 0.21 0.119 0.128 0.182-0.447 0.301-0.492 0.1-0.492 0.1-1.195-0.301-0.392-0.219-0.711-0.429-0.711-0.456 0-0.055 0.803-0.228 1.158-0.255 0.119 0 0.392 0.137 0.62 0.31zM2.663 13.351c0.091 0.429 0.182 0.857 0.201 0.967 0.046 0.155-0.027 0.228-0.41 0.383-0.246 0.109-0.511 0.201-0.575 0.201-0.1 0-0.264-0.465-0.593-1.714-0.046-0.173 0.027-0.237 0.529-0.465 0.319-0.146 0.611-0.237 0.638-0.201 0.027 0.027 0.128 0.401 0.21 0.83zM3.994 15.038c0.857 0.328 0.857 0.319-0.082 0.602-0.41 0.119-0.556 0.091-1.468-0.31l-0.41-0.173 0.456-0.219c0.255-0.119 0.52-0.219 0.593-0.21 0.073 0 0.483 0.137 0.912 0.31z"></path>
<path fill="#f5f5f5" style="fill: var(--color2, #f5f5f5); stroke: var(--color3, #000)" stroke="#000" stroke-linejoin="miter" stroke-linecap="butt" stroke-miterlimit="4" stroke-width="0.4103" d="M27.239 27.126l-0 0c-0.040 0.198-0.067 0.368-0.082 0.502-0.015 0.126-0.022 0.241-0.011 0.317 0.003 0.019 0.009 0.054 0.028 0.090 0.017 0.033 0.078 0.124 0.201 0.119 0.095-0.004 0.15-0.068 0.162-0.081 0.020-0.024 0.035-0.049 0.044-0.068 0.038-0.073 0.078-0.195 0.121-0.356l0.001-0.003h-0c0.045-0.179 0.235-0.868 0.418-1.517l0-0.001c0.184-0.661 0.45-1.789 0.579-2.526 0.222-1.183 0.25-1.58 0.25-3.32 0-1.68-0.027-2.118-0.205-2.934 0-0-0-0-0-0l-0.2 0.044-1.305 9.735zM27.239 27.126c0.181-0.894 0.481-3.003 0.645-4.496l-0.645 4.496zM27.215 27.819c0 0 0-0 0-0.001-0 0.001-0 0.001-0 0.001zM27.883 22.631c0.062-0.571 0.108-2.247 0.117-3.781l-0.117 3.781z"></path>
</symbol>
<symbol id="ins" viewBox="0 0 32 32">
<path fill="#fff" style="fill: var(--color1, #fff)" d="M31.969 9.408c-0.075-1.7-0.35-2.869-0.744-3.882-0.406-1.075-1.031-2.038-1.85-2.838-0.8-0.813-1.769-1.444-2.832-1.844-1.019-0.394-2.182-0.669-3.882-0.744-1.713-0.081-2.257-0.1-6.601-0.1s-4.888 0.019-6.595 0.094c-1.7 0.075-2.869 0.35-3.882 0.744-1.075 0.406-2.038 1.031-2.838 1.85-0.813 0.8-1.444 1.769-1.844 2.832-0.394 1.019-0.669 2.182-0.744 3.882-0.081 1.713-0.1 2.257-0.1 6.601s0.019 4.888 0.094 6.595c0.075 1.7 0.35 2.869 0.744 3.882 0.406 1.075 1.038 2.038 1.85 2.838 0.8 0.813 1.769 1.444 2.832 1.844 1.019 0.394 2.182 0.669 3.882 0.744 1.706 0.075 2.25 0.094 6.595 0.094s4.888-0.018 6.595-0.094c1.7-0.075 2.869-0.35 3.882-0.744 2.151-0.831 3.851-2.532 4.682-4.682 0.394-1.019 0.669-2.182 0.744-3.882 0.075-1.707 0.094-2.25 0.094-6.595s-0.006-4.888-0.081-6.595zM29.087 22.473c-0.069 1.563-0.331 2.407-0.55 2.969-0.538 1.394-1.644 2.5-3.038 3.038-0.563 0.219-1.413 0.481-2.969 0.55-1.688 0.075-2.194 0.094-6.464 0.094s-4.782-0.019-6.464-0.094c-1.563-0.069-2.407-0.331-2.969-0.55-0.694-0.256-1.325-0.663-1.838-1.194-0.531-0.519-0.938-1.144-1.194-1.838-0.219-0.563-0.481-1.413-0.55-2.969-0.075-1.688-0.094-2.194-0.094-6.464s0.019-4.782 0.094-6.464c0.069-1.563 0.331-2.407 0.55-2.969 0.256-0.694 0.663-1.325 1.2-1.838 0.519-0.531 1.144-0.938 1.838-1.194 0.563-0.219 1.413-0.481 2.969-0.55 1.688-0.075 2.194-0.094 6.464-0.094 4.276 0 4.782 0.019 6.464 0.094 1.563 0.069 2.407 0.331 2.969 0.55 0.694 0.256 1.325 0.662 1.838 1.194 0.531 0.519 0.938 1.144 1.194 1.838 0.219 0.563 0.481 1.413 0.55 2.969 0.075 1.688 0.094 2.194 0.094 6.464s-0.019 4.77-0.094 6.458z"></path>
<path fill="#fff" style="fill: var(--color1, #fff)" d="M16.059 7.783c-4.538 0-8.22 3.682-8.22 8.22s3.682 8.22 8.22 8.22c4.538 0 8.22-3.682 8.22-8.22s-3.682-8.22-8.22-8.22zM16.059 21.335c-2.944 0-5.332-2.388-5.332-5.332s2.388-5.332 5.332-5.332c2.944 0 5.332 2.388 5.332 5.332s-2.388 5.332-5.332 5.332z"></path>
<path fill="#fff" style="fill: var(--color1, #fff)" d="M26.524 7.458c0 1.060-0.859 1.919-1.919 1.919s-1.919-0.859-1.919-1.919c0-1.060 0.859-1.919 1.919-1.919s1.919 0.859 1.919 1.919z"></path>
</symbol>
<symbol id="tw" viewBox="0 0 32 32">
<path fill="#fff" style="fill: var(--color1, #fff)" d="M32 6.078c-1.19 0.522-2.458 0.868-3.78 1.036 1.36-0.812 2.398-2.088 2.886-3.626-1.268 0.756-2.668 1.29-4.16 1.588-1.204-1.282-2.92-2.076-4.792-2.076-3.632 0-6.556 2.948-6.556 6.562 0 0.52 0.044 1.020 0.152 1.496-5.454-0.266-10.28-2.88-13.522-6.862-0.566 0.982-0.898 2.106-0.898 3.316 0 2.272 1.17 4.286 2.914 5.452-1.054-0.020-2.088-0.326-2.964-0.808 0 0.020 0 0.046 0 0.072 0 3.188 2.274 5.836 5.256 6.446-0.534 0.146-1.116 0.216-1.72 0.216-0.42 0-0.844-0.024-1.242-0.112 0.85 2.598 3.262 4.508 6.13 4.57-2.232 1.746-5.066 2.798-8.134 2.798-0.538 0-1.054-0.024-1.57-0.090 2.906 1.874 6.35 2.944 10.064 2.944 12.072 0 18.672-10 18.672-18.668 0-0.29-0.010-0.57-0.024-0.848 1.302-0.924 2.396-2.078 3.288-3.406z"></path>
</symbol>
<symbol id="you" viewBox="0 0 32 32">
<path fill="#fff" style="fill: var(--color1, #fff)" d="M16.102 3.998h0.178c1.644 0.006 9.974 0.066 12.22 0.67 0.679 0.184 1.298 0.544 1.794 1.042s0.854 1.118 1.036 1.798c0.202 0.76 0.344 1.766 0.44 2.804l0.020 0.208 0.044 0.52 0.016 0.208c0.13 1.828 0.146 3.54 0.148 3.914v0.15c-0.002 0.388-0.020 2.216-0.164 4.12l-0.016 0.21-0.018 0.208c-0.1 1.144-0.248 2.28-0.47 3.116-0.181 0.68-0.538 1.3-1.035 1.799s-1.116 0.858-1.795 1.041c-2.32 0.624-11.138 0.668-12.36 0.67h-0.284c-0.618 0-3.174-0.012-5.854-0.104l-0.34-0.012-0.174-0.008-0.684-0.028c-2.22-0.098-4.334-0.256-5.308-0.52-0.679-0.184-1.298-0.542-1.795-1.041s-0.854-1.118-1.035-1.797c-0.222-0.834-0.37-1.972-0.47-3.116l-0.016-0.21-0.016-0.208c-0.099-1.355-0.153-2.713-0.164-4.072v-0.246c0.004-0.43 0.020-1.916 0.128-3.556l0.014-0.206 0.006-0.104 0.016-0.208 0.044-0.52 0.020-0.208c0.096-1.038 0.238-2.046 0.44-2.804 0.181-0.68 0.538-1.3 1.035-1.799s1.116-0.858 1.795-1.041c0.974-0.26 3.088-0.42 5.308-0.52l0.34-0.014 0.516-0.018 0.342-0.014c1.903-0.061 3.808-0.095 5.712-0.102h0.386v-0.002zM12.8 10.418v9.636l8.314-4.816-8.314-4.82z"></path>
</symbol>
</defs>
</svg>
