<svg width="50" height="50" viewBox="0 0 50 50" fill="none" xmlns="http://www.w3.org/2000/svg">
<g clip-path="url(#clip0_15_261)">
<path d="M25.1594 6.24689H25.4375C28.0063 6.25626 41.0219 6.35001 44.5312 7.29376C45.5922 7.58179 46.5589 8.14321 47.3349 8.92191C48.1108 9.70062 48.6688 10.6693 48.9531 11.7313C49.2687 12.9188 49.4906 14.4906 49.6406 16.1125L49.6719 16.4375L49.7406 17.25L49.7656 17.575C49.9688 20.4313 49.9937 23.1063 49.9969 23.6906V23.925C49.9937 24.5313 49.9656 27.3875 49.7406 30.3625L49.7156 30.6906L49.6875 31.0156C49.5312 32.8031 49.3 34.5781 48.9531 35.8844C48.6697 36.9467 48.112 37.9159 47.3359 38.6948C46.5598 39.4736 45.5926 40.0347 44.5312 40.3219C40.9062 41.2969 27.1281 41.3656 25.2188 41.3688H24.775C23.8094 41.3688 19.8156 41.35 15.6281 41.2063L15.0969 41.1875L14.825 41.175L14.2906 41.1531L13.7562 41.1313C10.2875 40.9781 6.98438 40.7313 5.4625 40.3188C4.40153 40.0319 3.43458 39.4712 2.65851 38.693C1.88245 37.9147 1.32452 36.9462 1.04062 35.8844C0.69375 34.5813 0.4625 32.8031 0.30625 31.0156L0.28125 30.6875L0.25625 30.3625C0.102024 28.245 0.0165621 26.1231 0 24L0 23.6156C0.00625 22.9438 0.03125 20.6219 0.2 18.0594L0.221875 17.7375L0.23125 17.575L0.25625 17.25L0.325 16.4375L0.35625 16.1125C0.50625 14.4906 0.728125 12.9156 1.04375 11.7313C1.32717 10.6689 1.88488 9.69973 2.66098 8.92089C3.43708 8.14206 4.40428 7.58093 5.46562 7.29376C6.9875 6.88751 10.2906 6.63751 13.7594 6.48126L14.2906 6.45939L14.8281 6.44064L15.0969 6.43126L15.6312 6.40939C18.6053 6.31368 21.5806 6.26055 24.5562 6.25001H25.1594V6.24689ZM20 16.2781V31.3344L32.9906 23.8094L20 16.2781Z" fill="white"/>
</g>
<defs>
<clipPath id="clip0_15_261">
<rect width="50" height="50" fill="white"/>
</clipPath>
</defs>
</svg>
